<?xml version="1.0" encoding="UTF-8" standalone="no"?>
<!-- Created with Inkscape (http://www.inkscape.org/) -->

<svg
   xmlns:dc="http://purl.org/dc/elements/1.1/"
   xmlns:cc="http://creativecommons.org/ns#"
   xmlns:rdf="http://www.w3.org/1999/02/22-rdf-syntax-ns#"
   xmlns:svg="http://www.w3.org/2000/svg"
   xmlns="http://www.w3.org/2000/svg"
   xmlns:sodipodi="http://sodipodi.sourceforge.net/DTD/sodipodi-0.dtd"
   xmlns:inkscape="http://www.inkscape.org/namespaces/inkscape"
   width="48pt"
   height="48pt"
   viewBox="0 0 16.933334 16.933333"
   version="1.1"
   id="svg979"
   inkscape:version="0.92.4 (5da689c313, 2019-01-14)"
   sodipodi:docname="4 - Girl Hoodie.svg"
   inkscape:export-filename="E:\TR Design Studio Creative\Project Design\TR Creative Design\Icon Design\Project Hiring\Icon Icons\Project - 001\002 - Beauty And Fashion\Send\4 - Filled Line\4 - Girl Hoodie.png"
   inkscape:export-xdpi="768"
   inkscape:export-ydpi="768">
  <defs
     id="defs973" />
  <sodipodi:namedview
     id="base"
     pagecolor="#ffffff"
     bordercolor="#666666"
     borderopacity="1.0"
     inkscape:pageopacity="0.0"
     inkscape:pageshadow="2"
     inkscape:zoom="6.0435533"
     inkscape:cx="26.64934"
     inkscape:cy="37.000654"
     inkscape:document-units="pt"
     inkscape:current-layer="layer1"
     showgrid="false"
     units="pt"
     inkscape:window-width="1366"
     inkscape:window-height="716"
     inkscape:window-x="-8"
     inkscape:window-y="-8"
     inkscape:window-maximized="1"
     inkscape:snap-bbox="true"
     inkscape:bbox-nodes="true"
     inkscape:snap-nodes="false"
     showguides="false">
    <inkscape:grid
       type="xygrid"
       id="grid1526" />
    <sodipodi:guide
       position="0.97013909,15.963209"
       orientation="56.666615,0"
       id="guide1528"
       inkscape:locked="false" />
    <sodipodi:guide
       position="0.97013909,0.97016731"
       orientation="0,56.666667"
       id="guide1530"
       inkscape:locked="false" />
    <sodipodi:guide
       position="15.963195,0.97016731"
       orientation="-56.666615,0"
       id="guide1532"
       inkscape:locked="false" />
    <sodipodi:guide
       position="15.963195,15.963209"
       orientation="0,-56.666667"
       id="guide1534"
       inkscape:locked="false" />
  </sodipodi:namedview>
  <metadata
     id="metadata976">
    <rdf:RDF>
      <cc:Work
         rdf:about="">
        <dc:format>image/svg+xml</dc:format>
        <dc:type
           rdf:resource="http://purl.org/dc/dcmitype/StillImage" />
        <dc:title></dc:title>
      </cc:Work>
    </rdf:RDF>
  </metadata>
  <g
     inkscape:label="Layer 1"
     inkscape:groupmode="layer"
     id="layer1"
     transform="translate(0,-280.06668)">
    <g
       id="g1043"
       transform="matrix(1.2317778,0,0,1.2317778,0.15393048,-67.924249)"
       style="stroke-width:0.81183475">
      <g
         id="g2139"
         style="display:inline;stroke-width:0.81183475"
         transform="translate(-21.614728,20.749891)">
        <path
           style="color:#000000;font-style:normal;font-variant:normal;font-weight:normal;font-stretch:normal;font-size:medium;line-height:normal;font-family:sans-serif;font-variant-ligatures:normal;font-variant-position:normal;font-variant-caps:normal;font-variant-numeric:normal;font-variant-alternates:normal;font-feature-settings:normal;text-indent:0;text-align:start;text-decoration:none;text-decoration-line:none;text-decoration-style:solid;text-decoration-color:#000000;letter-spacing:normal;word-spacing:normal;text-transform:none;writing-mode:lr-tb;direction:ltr;text-orientation:mixed;dominant-baseline:auto;baseline-shift:baseline;text-anchor:start;white-space:normal;shape-padding:0;clip-rule:nonzero;display:inline;overflow:visible;visibility:visible;opacity:1;isolation:auto;mix-blend-mode:normal;color-interpolation:sRGB;color-interpolation-filters:linearRGB;solid-color:#000000;solid-opacity:1;vector-effect:none;fill:#717171;fill-opacity:1;fill-rule:nonzero;stroke:none;stroke-width:0.42959616;stroke-linecap:round;stroke-linejoin:round;stroke-miterlimit:4;stroke-dasharray:none;stroke-dashoffset:0;stroke-opacity:1;paint-order:markers fill stroke;color-rendering:auto;image-rendering:auto;shape-rendering:auto;text-rendering:auto;enable-background:accumulate"
           d="m 22.753906,271.39062 a 0.26460996,0.26460996 0 0 0 -0.25,0.22461 l -0.154297,1.00977 a 0.26460996,0.26460996 0 0 0 0.220703,0.30078 l 1.21875,0.18945 a 0.26460996,0.26460996 0 0 0 0.296876,-0.19726 l 0.24414,-0.98633 a 0.26460996,0.26460996 0 0 0 -0.214844,-0.32422 l -1.308593,-0.21289 a 0.26460996,0.26460996 0 0 0 -0.05273,-0.004 z"
           id="path1614"
           inkscape:connector-curvature="0"
           inkscape:export-xdpi="700.72992"
           inkscape:export-ydpi="700.72992" />
        <path
           sodipodi:nodetypes="cccccccccc"
           inkscape:connector-curvature="0"
           id="path1733"
           d="m 22.759637,271.39019 c 0.0084,-2.2e-4 0.01691,-5e-5 0.02532,5.3e-4 0.0073,0.001 0.01453,0.002 0.0217,0.004 l 1.308447,0.21291 c 0.152487,0.0246 0.251614,0.17396 0.214974,0.32401 l -0.174837,0.70627 -1.761715,-0.30041 0.110308,-0.72212 c 0.0191,-0.12734 0.127069,-0.22245 0.255796,-0.22531 z"
           style="fill:#515151;fill-opacity:1;stroke:none;stroke-width:0.42959586;stroke-linecap:round;stroke-linejoin:round;stroke-miterlimit:1.5;stroke-opacity:1;paint-order:markers fill stroke"
           inkscape:export-xdpi="700.72992"
           inkscape:export-ydpi="700.72992" />
        <path
           style="color:#000000;font-style:normal;font-variant:normal;font-weight:normal;font-stretch:normal;font-size:medium;line-height:normal;font-family:sans-serif;font-variant-ligatures:normal;font-variant-position:normal;font-variant-caps:normal;font-variant-numeric:normal;font-variant-alternates:normal;font-feature-settings:normal;text-indent:0;text-align:start;text-decoration:none;text-decoration-line:none;text-decoration-style:solid;text-decoration-color:#000000;letter-spacing:normal;word-spacing:normal;text-transform:none;writing-mode:lr-tb;direction:ltr;text-orientation:mixed;dominant-baseline:auto;baseline-shift:baseline;text-anchor:start;white-space:normal;shape-padding:0;clip-rule:nonzero;display:inline;overflow:visible;visibility:visible;opacity:1;isolation:auto;mix-blend-mode:normal;color-interpolation:sRGB;color-interpolation-filters:linearRGB;solid-color:#000000;solid-opacity:1;vector-effect:none;fill:#717171;fill-opacity:1;fill-rule:nonzero;stroke:none;stroke-width:0.42959616;stroke-linecap:round;stroke-linejoin:round;stroke-miterlimit:4;stroke-dasharray:none;stroke-dashoffset:0;stroke-opacity:1;paint-order:markers fill stroke;color-rendering:auto;image-rendering:auto;shape-rendering:auto;text-rendering:auto;enable-background:accumulate"
           d="m 25.716797,273.13281 a 0.26460996,0.26460996 0 0 0 -0.263672,0.26367 v 1.0586 a 0.26460996,0.26460996 0 0 0 0.263672,0.26562 h 5.556641 a 0.26460996,0.26460996 0 0 0 0.265624,-0.26562 v -1.0586 a 0.26460996,0.26460996 0 0 0 -0.265624,-0.26367 z"
           id="path1662"
           inkscape:connector-curvature="0"
           inkscape:export-xdpi="700.72992"
           inkscape:export-ydpi="700.72992" />
        <path
           style="color:#000000;font-style:normal;font-variant:normal;font-weight:normal;font-stretch:normal;font-size:medium;line-height:normal;font-family:sans-serif;font-variant-ligatures:normal;font-variant-position:normal;font-variant-caps:normal;font-variant-numeric:normal;font-variant-alternates:normal;font-feature-settings:normal;text-indent:0;text-align:start;text-decoration:none;text-decoration-line:none;text-decoration-style:solid;text-decoration-color:#000000;letter-spacing:normal;word-spacing:normal;text-transform:none;writing-mode:lr-tb;direction:ltr;text-orientation:mixed;dominant-baseline:auto;baseline-shift:baseline;text-anchor:start;white-space:normal;shape-padding:0;clip-rule:nonzero;display:inline;overflow:visible;visibility:visible;opacity:1;isolation:auto;mix-blend-mode:normal;color-interpolation:sRGB;color-interpolation-filters:linearRGB;solid-color:#000000;solid-opacity:1;vector-effect:none;fill:#bd6e38;fill-opacity:1;fill-rule:nonzero;stroke:none;stroke-width:0.42959616;stroke-linecap:round;stroke-linejoin:round;stroke-miterlimit:4;stroke-dasharray:none;stroke-dashoffset:0;stroke-opacity:1;paint-order:markers fill stroke;color-rendering:auto;image-rendering:auto;shape-rendering:auto;text-rendering:auto;enable-background:accumulate"
           d="m 28.363281,262.54883 c -1.902479,0 -3.029297,0.55859 -3.029297,0.55859 a 0.26460996,0.26460996 0 0 0 -0.06836,0.42383 l 2.910156,2.90234 a 0.26460996,0.26460996 0 0 0 0.375,0 l 2.910157,-2.90234 a 0.26460996,0.26460996 0 0 0 -0.06836,-0.42383 c 0,0 -1.126818,-0.55859 -3.029296,-0.55859 z"
           id="path1656"
           inkscape:connector-curvature="0"
           inkscape:export-xdpi="700.72992"
           inkscape:export-ydpi="700.72992" />
        <path
           style="color:#000000;font-style:normal;font-variant:normal;font-weight:normal;font-stretch:normal;font-size:medium;line-height:normal;font-family:sans-serif;font-variant-ligatures:normal;font-variant-position:normal;font-variant-caps:normal;font-variant-numeric:normal;font-variant-alternates:normal;font-feature-settings:normal;text-indent:0;text-align:start;text-decoration:none;text-decoration-line:none;text-decoration-style:solid;text-decoration-color:#000000;letter-spacing:normal;word-spacing:normal;text-transform:none;writing-mode:lr-tb;direction:ltr;text-orientation:mixed;dominant-baseline:auto;baseline-shift:baseline;text-anchor:start;white-space:normal;shape-padding:0;clip-rule:nonzero;display:inline;overflow:visible;visibility:visible;opacity:1;isolation:auto;mix-blend-mode:normal;color-interpolation:sRGB;color-interpolation-filters:linearRGB;solid-color:#000000;solid-opacity:1;vector-effect:none;fill:#87491f;fill-opacity:1;fill-rule:nonzero;stroke:none;stroke-width:0.42959616;stroke-linecap:round;stroke-linejoin:round;stroke-miterlimit:4;stroke-dasharray:none;stroke-dashoffset:0;stroke-opacity:1;paint-order:markers fill stroke;color-rendering:auto;image-rendering:auto;shape-rendering:auto;text-rendering:auto;enable-background:accumulate"
           d="m 28.363281,262.54883 c -1.902478,0 -3.029273,0.55863 -3.029273,0.55863 a 0.26460995,0.26460995 0 0 0 -0.06821,0.42374 l 0.119888,0.11937 c 0.268013,-0.025 0.549929,-0.0434 0.860931,-0.0434 1.902478,0 3.029272,0.55862 3.029272,0.55862 a 0.26460995,0.26460995 0 0 1 0.06873,0.42375 l -1.50895,1.50481 0.340029,0.339 a 0.26460995,0.26460995 0 0 0 0.375172,0 l 2.910416,-2.90215 a 0.26460995,0.26460995 0 0 0 -0.06873,-0.42374 c 0,0 -1.126794,-0.55863 -3.029273,-0.55863 z"
           id="path1742"
           inkscape:connector-curvature="0"
           inkscape:export-xdpi="700.72992"
           inkscape:export-ydpi="700.72992" />
        <path
           style="color:#000000;font-style:normal;font-variant:normal;font-weight:normal;font-stretch:normal;font-size:medium;line-height:normal;font-family:sans-serif;font-variant-ligatures:normal;font-variant-position:normal;font-variant-caps:normal;font-variant-numeric:normal;font-variant-alternates:normal;font-feature-settings:normal;text-indent:0;text-align:start;text-decoration:none;text-decoration-line:none;text-decoration-style:solid;text-decoration-color:#000000;letter-spacing:normal;word-spacing:normal;text-transform:none;writing-mode:lr-tb;direction:ltr;text-orientation:mixed;dominant-baseline:auto;baseline-shift:baseline;text-anchor:start;white-space:normal;shape-padding:0;clip-rule:nonzero;display:inline;overflow:visible;visibility:visible;opacity:1;isolation:auto;mix-blend-mode:normal;color-interpolation:sRGB;color-interpolation-filters:linearRGB;solid-color:#000000;solid-opacity:1;vector-effect:none;fill:#717171;fill-opacity:1;fill-rule:nonzero;stroke:none;stroke-width:0.42959616;stroke-linecap:round;stroke-linejoin:round;stroke-miterlimit:4;stroke-dasharray:none;stroke-dashoffset:0;stroke-opacity:1;paint-order:markers fill stroke;color-rendering:auto;image-rendering:auto;shape-rendering:auto;text-rendering:auto;enable-background:accumulate"
           d="m 33.941406,271.39062 a 0.26460996,0.26460996 0 0 0 -0.02148,0.004 l -1.308594,0.21289 a 0.26460996,0.26460996 0 0 0 -0.214844,0.32422 l 0.244141,0.98633 a 0.26460996,0.26460996 0 0 0 0.296875,0.19726 l 1.21875,-0.18945 a 0.26460996,0.26460996 0 0 0 0.220703,-0.30078 l -0.154297,-1.00977 a 0.26460996,0.26460996 0 0 0 -0.28125,-0.22461 z"
           id="path1621"
           inkscape:connector-curvature="0"
           inkscape:export-xdpi="700.72992"
           inkscape:export-ydpi="700.72992" />
        <path
           style="color:#000000;font-style:normal;font-variant:normal;font-weight:normal;font-stretch:normal;font-size:medium;line-height:normal;font-family:sans-serif;font-variant-ligatures:normal;font-variant-position:normal;font-variant-caps:normal;font-variant-numeric:normal;font-variant-alternates:normal;font-feature-settings:normal;text-indent:0;text-align:start;text-decoration:none;text-decoration-line:none;text-decoration-style:solid;text-decoration-color:#000000;letter-spacing:normal;word-spacing:normal;text-transform:none;writing-mode:lr-tb;direction:ltr;text-orientation:mixed;dominant-baseline:auto;baseline-shift:baseline;text-anchor:start;white-space:normal;shape-padding:0;clip-rule:nonzero;display:inline;overflow:visible;visibility:visible;opacity:1;isolation:auto;mix-blend-mode:normal;color-interpolation:sRGB;color-interpolation-filters:linearRGB;solid-color:#000000;solid-opacity:1;vector-effect:none;fill:#f8a364;fill-opacity:1;fill-rule:nonzero;stroke:none;stroke-width:1.62367046;stroke-linecap:round;stroke-linejoin:round;stroke-miterlimit:4;stroke-dasharray:none;stroke-dashoffset:0;stroke-opacity:1;paint-order:markers fill stroke;color-rendering:auto;image-rendering:auto;shape-rendering:auto;text-rendering:auto;enable-background:accumulate"
           d="m 119.86914,-78.173828 c -0.0115,0.0025 -0.0237,0.0011 -0.0352,0.0039 -7.34258,1.661707 -10.9379,4.020088 -12.57617,6.619307 -0.5186,0.822791 -0.82068,2.154267 -1.00586,2.814287 0.008,0.169205 0.0207,0.329272 0.0254,0.376953 l 1.91993,0.0957 c -0.0648,-1.128945 0.7513,-2.825203 3.43945,-3.898437 2.28108,-0.723289 4.14793,-0.841323 6.45898,-0.597657 0.37062,0.03855 0.73191,-0.13272 0.9375,-0.443359 0.69985,-1.066243 1.15124,-2.111943 1.16602,-3.232422 0.008,-0.585268 -0.11142,-1.161336 -0.33008,-1.738281 z"
           transform="matrix(0.26458333,0,0,0.26458333,0,284.3)"
           id="path1735"
           inkscape:connector-curvature="0"
           sodipodi:nodetypes="ccsccccccccc"
           inkscape:export-xdpi="700.72992"
           inkscape:export-ydpi="700.72992" />
        <path
           style="fill:#515151;fill-opacity:1;stroke:none;stroke-width:1.62366939;stroke-linecap:round;stroke-linejoin:round;stroke-miterlimit:1.5;stroke-opacity:1;paint-order:markers fill stroke"
           d="m 128.37891,-48.792969 c -0.0319,-8.61e-4 -0.0639,-1.94e-4 -0.0957,0.002 -0.0275,0.0041 -0.0549,0.0093 -0.082,0.01563 l -4.94531,0.804688 c -0.57633,0.09284 -0.95098,0.657508 -0.8125,1.224609 l 0.6608,2.669378 6.65845,-1.135388 -0.41691,-2.729302 c -0.0722,-0.481268 -0.48026,-0.840733 -0.96679,-0.851563 z"
           transform="matrix(0.26458333,0,0,0.26458333,0,284.3)"
           id="path1728"
           inkscape:connector-curvature="0"
           sodipodi:nodetypes="cccccccccc"
           inkscape:export-xdpi="700.72992"
           inkscape:export-ydpi="700.72992" />
        <path
           sodipodi:nodetypes="ccsccccccccc"
           inkscape:connector-curvature="0"
           id="path1740"
           d="m 25.004635,263.61651 c 0.003,6.6e-4 0.0063,2.9e-4 0.0093,10e-4 1.942724,0.43966 2.893986,1.06365 3.327445,1.75136 0.137213,0.2177 0.217138,0.56998 0.266134,0.74461 -0.0021,0.0448 -0.0055,0.0871 -0.0067,0.0997 l -0.507981,0.0253 c 0.01714,-0.2987 -0.198781,-0.7475 -0.910021,-1.03146 -0.603536,-0.19137 -1.097473,-0.2226 -1.708939,-0.15813 -0.09806,0.0102 -0.193651,-0.0351 -0.248046,-0.11731 -0.185169,-0.28211 -0.304599,-0.55878 -0.30851,-0.85524 -0.0021,-0.15486 0.02948,-0.30727 0.08733,-0.45992 z"
           style="color:#000000;font-style:normal;font-variant:normal;font-weight:normal;font-stretch:normal;font-size:medium;line-height:normal;font-family:sans-serif;font-variant-ligatures:normal;font-variant-position:normal;font-variant-caps:normal;font-variant-numeric:normal;font-variant-alternates:normal;font-feature-settings:normal;text-indent:0;text-align:start;text-decoration:none;text-decoration-line:none;text-decoration-style:solid;text-decoration-color:#000000;letter-spacing:normal;word-spacing:normal;text-transform:none;writing-mode:lr-tb;direction:ltr;text-orientation:mixed;dominant-baseline:auto;baseline-shift:baseline;text-anchor:start;white-space:normal;shape-padding:0;clip-rule:nonzero;display:inline;overflow:visible;visibility:visible;opacity:1;isolation:auto;mix-blend-mode:normal;color-interpolation:sRGB;color-interpolation-filters:linearRGB;solid-color:#000000;solid-opacity:1;vector-effect:none;fill:#f8a364;fill-opacity:1;fill-rule:nonzero;stroke:none;stroke-width:0.42959616;stroke-linecap:round;stroke-linejoin:round;stroke-miterlimit:4;stroke-dasharray:none;stroke-dashoffset:0;stroke-opacity:1;paint-order:markers fill stroke;color-rendering:auto;image-rendering:auto;shape-rendering:auto;text-rendering:auto;enable-background:accumulate"
           inkscape:export-xdpi="700.72992"
           inkscape:export-ydpi="700.72992" />
        <path
           style="fill:#515151;fill-opacity:1;stroke:none;stroke-width:1.62366939;stroke-linecap:round;stroke-linejoin:round;stroke-miterlimit:1.5;stroke-opacity:1;paint-order:markers fill stroke"
           d="m 96.201172,-41.210938 v 2.828126 h 23.001948 v -2.828126 z"
           transform="matrix(0.26458333,0,0,0.26458333,0,284.3)"
           id="path1771"
           inkscape:connector-curvature="0"
           inkscape:export-xdpi="700.72992"
           inkscape:export-ydpi="700.72992" />
        <path
           style="color:#000000;font-style:normal;font-variant:normal;font-weight:normal;font-stretch:normal;font-size:medium;line-height:normal;font-family:sans-serif;font-variant-ligatures:normal;font-variant-position:normal;font-variant-caps:normal;font-variant-numeric:normal;font-variant-alternates:normal;font-feature-settings:normal;text-indent:0;text-align:start;text-decoration:none;text-decoration-line:none;text-decoration-style:solid;text-decoration-color:#000000;letter-spacing:normal;word-spacing:normal;text-transform:none;writing-mode:lr-tb;direction:ltr;text-orientation:mixed;dominant-baseline:auto;baseline-shift:baseline;text-anchor:start;white-space:normal;shape-padding:0;clip-rule:nonzero;display:inline;overflow:visible;visibility:visible;opacity:1;isolation:auto;mix-blend-mode:normal;color-interpolation:sRGB;color-interpolation-filters:linearRGB;solid-color:#000000;solid-opacity:1;vector-effect:none;fill:#ffd180;fill-opacity:1;fill-rule:nonzero;stroke:none;stroke-width:0.42959616;stroke-linecap:round;stroke-linejoin:round;stroke-miterlimit:4;stroke-dasharray:none;stroke-dashoffset:0;stroke-opacity:1;paint-order:markers fill stroke;color-rendering:auto;image-rendering:auto;shape-rendering:auto;text-rendering:auto;enable-background:accumulate"
           d="m 25.449219,264.51953 c -0.863184,0.091 -1.479251,0.59654 -1.871094,1.16797 -0.390083,0.56886 -0.5776,1.20236 -0.636719,1.65234 v 0.004 c -1.44e-4,10e-4 -0.0018,0.003 -0.002,0.004 l -0.658203,4.23242 a 0.26460996,0.26460996 0 0 0 0.220703,0.30273 l 1.810547,0.28321 a 0.26460996,0.26460996 0 0 0 0.287109,-0.16407 l 0.185547,-0.4707 -0.125,1.3125 c -0.04406,0.4626 0.357008,0.81836 0.792969,0.81836 h 5.820313 c 0.43596,0 0.837022,-0.35576 0.792968,-0.81836 l -0.125,-1.31641 0.1875,0.47461 a 0.26460996,0.26460996 0 0 0 0.285156,0.16407 l 1.810547,-0.28321 a 0.26460996,0.26460996 0 0 0 0.220703,-0.30273 l -0.658203,-4.23242 -0.002,-0.004 c -0.05871,-0.45015 -0.245833,-1.08622 -0.636718,-1.65625 -0.391844,-0.57143 -1.00791,-1.07699 -1.871094,-1.16797 -0.723882,-0.0741 -1.463927,-0.016 -2.064453,0.24219 -0.372612,0.16022 -0.648272,0.44479 -0.84961,0.78516 -0.201338,-0.34037 -0.476997,-0.62494 -0.849609,-0.78516 -0.600527,-0.25822 -1.340572,-0.31634 -2.064453,-0.24219 z"
           id="path1629"
           inkscape:connector-curvature="0"
           inkscape:export-xdpi="700.72992"
           inkscape:export-ydpi="700.72992" />
        <path
           style="color:#000000;font-style:normal;font-variant:normal;font-weight:normal;font-stretch:normal;font-size:medium;line-height:normal;font-family:sans-serif;font-variant-ligatures:normal;font-variant-position:normal;font-variant-caps:normal;font-variant-numeric:normal;font-variant-alternates:normal;font-feature-settings:normal;text-indent:0;text-align:start;text-decoration:none;text-decoration-line:none;text-decoration-style:solid;text-decoration-color:#000000;letter-spacing:normal;word-spacing:normal;text-transform:none;writing-mode:lr-tb;direction:ltr;text-orientation:mixed;dominant-baseline:auto;baseline-shift:baseline;text-anchor:start;white-space:normal;shape-padding:0;clip-rule:nonzero;display:inline;overflow:visible;visibility:visible;opacity:1;isolation:auto;mix-blend-mode:normal;color-interpolation:sRGB;color-interpolation-filters:linearRGB;solid-color:#000000;solid-opacity:1;vector-effect:none;fill:#f8a364;fill-opacity:1;fill-rule:nonzero;stroke:none;stroke-width:1.62367046;stroke-linecap:round;stroke-linejoin:round;stroke-miterlimit:4;stroke-dasharray:none;stroke-dashoffset:0;stroke-opacity:1;paint-order:markers fill stroke;color-rendering:auto;image-rendering:auto;shape-rendering:auto;text-rendering:auto;enable-background:accumulate"
           d="m 118.19141,-65.222656 a 1.0001006,1.0001006 0 0 0 -0.98829,1.113281 l 2.25,23.630859 c 1.07728,-0.476244 1.8644,-1.537075 1.74219,-2.820312 l -0.43554,-4.580078 -0.0371,-0.394532 -1.52735,-16.027343 a 1.0001006,1.0001006 0 0 0 -1.0039,-0.921875 z"
           transform="matrix(0.26458333,0,0,0.26458333,0,284.3)"
           id="path1633"
           inkscape:connector-curvature="0"
           inkscape:export-xdpi="700.72992"
           inkscape:export-ydpi="700.72992" />
        <path
           style="color:#000000;font-style:normal;font-variant:normal;font-weight:normal;font-stretch:normal;font-size:medium;line-height:normal;font-family:sans-serif;font-variant-ligatures:normal;font-variant-position:normal;font-variant-caps:normal;font-variant-numeric:normal;font-variant-alternates:normal;font-feature-settings:normal;text-indent:0;text-align:start;text-decoration:none;text-decoration-line:none;text-decoration-style:solid;text-decoration-color:#000000;letter-spacing:normal;word-spacing:normal;text-transform:none;writing-mode:lr-tb;direction:ltr;text-orientation:mixed;dominant-baseline:auto;baseline-shift:baseline;text-anchor:start;white-space:normal;shape-padding:0;clip-rule:nonzero;display:inline;overflow:visible;visibility:visible;opacity:1;isolation:auto;mix-blend-mode:normal;color-interpolation:sRGB;color-interpolation-filters:linearRGB;solid-color:#000000;solid-opacity:1;vector-effect:none;fill:#f8a364;fill-opacity:1;fill-rule:nonzero;stroke:none;stroke-width:1.62367046;stroke-linecap:round;stroke-linejoin:round;stroke-miterlimit:4;stroke-dasharray:none;stroke-dashoffset:0;stroke-opacity:1;paint-order:markers fill stroke;color-rendering:auto;image-rendering:auto;shape-rendering:auto;text-rendering:auto;enable-background:accumulate"
           d="m 96.177734,-65.222656 a 1.0001006,1.0001006 0 0 0 -0.972656,0.921875 l -1.529297,16.041015 -0.472656,4.960938 c -0.122221,1.283237 0.664902,2.344068 1.742187,2.820312 l 2.251954,-23.630859 a 1.0001006,1.0001006 0 0 0 -1.019532,-1.113281 z"
           transform="matrix(0.26458333,0,0,0.26458333,0,284.3)"
           id="rect910"
           inkscape:connector-curvature="0"
           inkscape:export-xdpi="700.72992"
           inkscape:export-ydpi="700.72992" />
        <path
           style="color:#000000;font-style:normal;font-variant:normal;font-weight:normal;font-stretch:normal;font-size:medium;line-height:normal;font-family:sans-serif;font-variant-ligatures:normal;font-variant-position:normal;font-variant-caps:normal;font-variant-numeric:normal;font-variant-alternates:normal;font-feature-settings:normal;text-indent:0;text-align:start;text-decoration:none;text-decoration-line:none;text-decoration-style:solid;text-decoration-color:#000000;letter-spacing:normal;word-spacing:normal;text-transform:none;writing-mode:lr-tb;direction:ltr;text-orientation:mixed;dominant-baseline:auto;baseline-shift:baseline;text-anchor:start;white-space:normal;shape-padding:0;clip-rule:nonzero;display:inline;overflow:visible;visibility:visible;opacity:1;isolation:auto;mix-blend-mode:normal;color-interpolation:sRGB;color-interpolation-filters:linearRGB;solid-color:#000000;solid-opacity:1;vector-effect:none;fill:#717171;fill-opacity:1;fill-rule:nonzero;stroke:none;stroke-width:0.42959616;stroke-linecap:round;stroke-linejoin:round;stroke-miterlimit:4;stroke-dasharray:none;stroke-dashoffset:0;stroke-opacity:1;paint-order:markers fill stroke;color-rendering:auto;image-rendering:auto;shape-rendering:auto;text-rendering:auto;enable-background:accumulate"
           d="m 26.513672,269.68945 a 0.26460996,0.26460996 0 0 0 -0.08008,0.0137 0.26460996,0.26460996 0 0 0 -0.02344,0.008 0.26460996,0.26460996 0 0 0 -0.002,0.002 0.26460996,0.26460996 0 0 0 -0.04492,0.0215 0.26460996,0.26460996 0 0 0 -0.002,0.002 0.26460996,0.26460996 0 0 0 -0.01953,0.0156 0.26460996,0.26460996 0 0 0 -0.002,0.002 0.26460996,0.26460996 0 0 0 -0.03516,0.0351 0.26460996,0.26460996 0 0 0 -0.002,0.002 0.26460996,0.26460996 0 0 0 -0.01367,0.0195 0.26460996,0.26460996 0 0 0 -0.002,0.002 0.26460996,0.26460996 0 0 0 -0.04492,0.13672 l -0.517579,2.33203 a 0.26460996,0.26460996 0 0 0 0.257813,0.32227 h 4.761719 a 0.26460996,0.26460996 0 0 0 0.257812,-0.32227 l -0.527344,-2.38086 a 0.26460996,0.26460996 0 0 0 -0.259765,-0.20703 h -3.66211 a 0.26460996,0.26460996 0 0 0 -0.03906,-0.004 z"
           id="path1710"
           inkscape:connector-curvature="0"
           inkscape:export-xdpi="700.72992"
           inkscape:export-ydpi="700.72992" />
        <path
           style="color:#000000;font-style:normal;font-variant:normal;font-weight:normal;font-stretch:normal;font-size:medium;line-height:normal;font-family:sans-serif;font-variant-ligatures:normal;font-variant-position:normal;font-variant-caps:normal;font-variant-numeric:normal;font-variant-alternates:normal;font-feature-settings:normal;text-indent:0;text-align:start;text-decoration:none;text-decoration-line:none;text-decoration-style:solid;text-decoration-color:#000000;letter-spacing:normal;word-spacing:normal;text-transform:none;writing-mode:lr-tb;direction:ltr;text-orientation:mixed;dominant-baseline:auto;baseline-shift:baseline;text-anchor:start;white-space:normal;shape-padding:0;clip-rule:nonzero;display:inline;overflow:visible;visibility:visible;opacity:1;isolation:auto;mix-blend-mode:normal;color-interpolation:sRGB;color-interpolation-filters:linearRGB;solid-color:#000000;solid-opacity:1;vector-effect:none;fill:#f73e7e;fill-opacity:1;fill-rule:nonzero;stroke:none;stroke-width:0.42959616;stroke-linecap:round;stroke-linejoin:round;stroke-miterlimit:4;stroke-dasharray:none;stroke-dashoffset:0;stroke-opacity:1;paint-order:markers fill stroke;color-rendering:auto;image-rendering:auto;shape-rendering:auto;text-rendering:auto;enable-background:accumulate"
           d="m 28.804688,267.03516 c -0.145499,-0.0135 -0.28885,0.0774 -0.431641,0.15429 -0.12183,-0.0692 -0.240655,-0.15007 -0.382813,-0.15039 a 0.26460996,0.26460996 0 0 0 -0.002,0 c -0.355747,1.5e-4 -0.642614,0.22564 -0.757812,0.50977 -0.115198,0.28413 -0.0677,0.64668 0.1875,0.89453 l 0.757812,0.75976 a 0.26460996,0.26460996 0 0 0 0.375,0 l 0.759766,-0.75976 0.002,-0.002 c 0.175075,-0.1728 0.25998,-0.39691 0.251953,-0.60547 -0.0081,-0.20938 -0.09811,-0.3973 -0.232422,-0.53906 -0.134316,-0.14177 -0.318708,-0.24239 -0.527343,-0.26172 z"
           id="path1753"
           inkscape:connector-curvature="0"
           inkscape:export-xdpi="700.72992"
           inkscape:export-ydpi="700.72992" />
        <path
           style="color:#000000;font-style:normal;font-variant:normal;font-weight:normal;font-stretch:normal;font-size:medium;line-height:normal;font-family:sans-serif;font-variant-ligatures:normal;font-variant-position:normal;font-variant-caps:normal;font-variant-numeric:normal;font-variant-alternates:normal;font-feature-settings:normal;text-indent:0;text-align:start;text-decoration:none;text-decoration-line:none;text-decoration-style:solid;text-decoration-color:#000000;letter-spacing:normal;word-spacing:normal;text-transform:none;writing-mode:lr-tb;direction:ltr;text-orientation:mixed;dominant-baseline:auto;baseline-shift:baseline;text-anchor:start;white-space:normal;shape-padding:0;clip-rule:nonzero;display:inline;overflow:visible;visibility:visible;opacity:1;isolation:auto;mix-blend-mode:normal;color-interpolation:sRGB;color-interpolation-filters:linearRGB;solid-color:#000000;solid-opacity:1;vector-effect:none;fill:#f8a364;fill-opacity:1;fill-rule:nonzero;stroke:none;stroke-width:0.42959616;stroke-linecap:round;stroke-linejoin:round;stroke-miterlimit:4;stroke-dasharray:none;stroke-dashoffset:0;stroke-opacity:1;paint-order:markers fill stroke;color-rendering:auto;image-rendering:auto;shape-rendering:auto;text-rendering:auto;enable-background:accumulate"
           d="m 32.040006,272.56881 c -0.09155,0.33147 -0.415256,0.56431 -0.766361,0.56431 h -5.820317 c -0.350933,0 -0.67514,-0.23258 -0.766879,-0.56379 l -0.02635,0.2744 c -0.04406,0.4626 0.357274,0.81856 0.793234,0.81856 h 5.820317 c 0.435959,0 0.836771,-0.35596 0.792716,-0.81856 z"
           id="path1781"
           inkscape:connector-curvature="0"
           sodipodi:nodetypes="cssccsscc"
           inkscape:export-xdpi="700.72992"
           inkscape:export-ydpi="700.72992" />
        <path
           style="color:#000000;font-style:normal;font-variant:normal;font-weight:normal;font-stretch:normal;font-size:medium;line-height:normal;font-family:sans-serif;font-variant-ligatures:normal;font-variant-position:normal;font-variant-caps:normal;font-variant-numeric:normal;font-variant-alternates:normal;font-feature-settings:normal;text-indent:0;text-align:start;text-decoration:none;text-decoration-line:none;text-decoration-style:solid;text-decoration-color:#000000;letter-spacing:normal;word-spacing:normal;text-transform:none;writing-mode:lr-tb;direction:ltr;text-orientation:mixed;dominant-baseline:auto;baseline-shift:baseline;text-anchor:start;white-space:normal;shape-padding:0;clip-rule:nonzero;display:inline;overflow:visible;visibility:visible;opacity:1;isolation:auto;mix-blend-mode:normal;color-interpolation:sRGB;color-interpolation-filters:linearRGB;solid-color:#000000;solid-opacity:1;vector-effect:none;fill:#cccccc;fill-opacity:1;fill-rule:nonzero;stroke:none;stroke-width:1.62366915;stroke-linecap:round;stroke-linejoin:round;stroke-miterlimit:4;stroke-dasharray:none;stroke-dashoffset:0;stroke-opacity:1;paint-order:markers fill stroke;color-rendering:auto;image-rendering:auto;shape-rendering:auto;text-rendering:auto;enable-background:accumulate"
           d="m 98.835938,-52.681641 -1.609376,7.257813 c -0.139921,0.624512 0.334616,1.21792 0.97461,1.21875 h 5.906248 c 0.44082,-3.575739 -1.47314,-8.476535 -5.271482,-8.476563 z"
           transform="matrix(0.26458333,0,0,0.26458333,0,284.3)"
           id="path1702"
           inkscape:connector-curvature="0"
           sodipodi:nodetypes="ccccc"
           inkscape:export-xdpi="700.72992"
           inkscape:export-ydpi="700.72992" />
        <path
           style="color:#000000;font-style:normal;font-variant:normal;font-weight:normal;font-stretch:normal;font-size:medium;line-height:normal;font-family:sans-serif;font-variant-ligatures:normal;font-variant-position:normal;font-variant-caps:normal;font-variant-numeric:normal;font-variant-alternates:normal;font-feature-settings:normal;text-indent:0;text-align:start;text-decoration:none;text-decoration-line:none;text-decoration-style:solid;text-decoration-color:#000000;letter-spacing:normal;word-spacing:normal;text-transform:none;writing-mode:lr-tb;direction:ltr;text-orientation:mixed;dominant-baseline:auto;baseline-shift:baseline;text-anchor:start;white-space:normal;shape-padding:0;clip-rule:nonzero;display:inline;overflow:visible;visibility:visible;opacity:1;isolation:auto;mix-blend-mode:normal;color-interpolation:sRGB;color-interpolation-filters:linearRGB;solid-color:#000000;solid-opacity:1;vector-effect:none;fill:#515151;fill-opacity:1;fill-rule:nonzero;stroke:none;stroke-width:0.42959616;stroke-linecap:round;stroke-linejoin:round;stroke-miterlimit:4;stroke-dasharray:none;stroke-dashoffset:0;stroke-opacity:1;paint-order:markers fill stroke;color-rendering:auto;image-rendering:auto;shape-rendering:auto;text-rendering:auto;enable-background:accumulate"
           d="m 26.513625,269.68952 c -0.02723,3.2e-4 -0.05425,0.005 -0.0801,0.0134 -0.0079,0.002 -0.01564,0.005 -0.02326,0.008 -7.93e-4,6.8e-4 -0.0013,0.001 -0.0021,0.002 -0.01561,0.006 -0.03067,0.0127 -0.04496,0.0212 -7.94e-4,6.9e-4 -0.0013,10e-4 -0.0021,0.002 -0.0068,0.005 -0.01334,0.01 -0.01963,0.0155 -7.93e-4,6.9e-4 -0.0013,10e-4 -0.0021,0.002 -0.01278,0.0106 -0.02455,0.0223 -0.03514,0.0351 -5.29e-4,6.9e-4 -0.0011,10e-4 -0.0016,0.002 -0.0049,0.006 -0.0096,0.0129 -0.01394,0.0196 -7.93e-4,6.9e-4 -0.0013,0.001 -0.0021,0.002 -0.02728,0.0405 -0.04284,0.0877 -0.04496,0.13643 l -0.06046,0.27337 c 3.356996,0.0274 3.664305,0.21324 4.245221,2.38125 h 0.317294 c 0.16933,-2.2e-4 0.294886,-0.15723 0.257865,-0.32246 l -0.5271,-2.38074 c -0.02703,-0.12167 -0.135297,-0.20798 -0.259932,-0.20722 h -3.662309 c -0.01281,-0.002 -0.02574,-0.004 -0.03876,-0.004 z"
           id="path1761"
           inkscape:connector-curvature="0"
           sodipodi:nodetypes="cccccccccccccccccccccc"
           inkscape:export-xdpi="700.72992"
           inkscape:export-ydpi="700.72992" />
        <path
           sodipodi:nodetypes="ccccc"
           inkscape:connector-curvature="0"
           id="path1715"
           d="m 30.576388,270.36132 0.425814,1.92029 c 0.03702,0.16524 -0.08853,0.32224 -0.257866,0.32246 h -1.562694 c -0.116634,-0.94608 0.389768,-2.24275 1.394746,-2.24275 z"
           style="color:#000000;font-style:normal;font-variant:normal;font-weight:normal;font-stretch:normal;font-size:medium;line-height:normal;font-family:sans-serif;font-variant-ligatures:normal;font-variant-position:normal;font-variant-caps:normal;font-variant-numeric:normal;font-variant-alternates:normal;font-feature-settings:normal;text-indent:0;text-align:start;text-decoration:none;text-decoration-line:none;text-decoration-style:solid;text-decoration-color:#000000;letter-spacing:normal;word-spacing:normal;text-transform:none;writing-mode:lr-tb;direction:ltr;text-orientation:mixed;dominant-baseline:auto;baseline-shift:baseline;text-anchor:start;white-space:normal;shape-padding:0;clip-rule:nonzero;display:inline;overflow:visible;visibility:visible;opacity:1;isolation:auto;mix-blend-mode:normal;color-interpolation:sRGB;color-interpolation-filters:linearRGB;solid-color:#000000;solid-opacity:1;vector-effect:none;fill:#cccccc;fill-opacity:1;fill-rule:nonzero;stroke:none;stroke-width:0.4295958;stroke-linecap:round;stroke-linejoin:round;stroke-miterlimit:4;stroke-dasharray:none;stroke-dashoffset:0;stroke-opacity:1;paint-order:markers fill stroke;color-rendering:auto;image-rendering:auto;shape-rendering:auto;text-rendering:auto;enable-background:accumulate"
           inkscape:export-xdpi="700.72992"
           inkscape:export-ydpi="700.72992" />
        <path
           style="color:#000000;font-style:normal;font-variant:normal;font-weight:normal;font-stretch:normal;font-size:medium;line-height:normal;font-family:sans-serif;font-variant-ligatures:normal;font-variant-position:normal;font-variant-caps:normal;font-variant-numeric:normal;font-variant-alternates:normal;font-feature-settings:normal;text-indent:0;text-align:start;text-decoration:none;text-decoration-line:none;text-decoration-style:solid;text-decoration-color:#000000;letter-spacing:normal;word-spacing:normal;text-transform:none;writing-mode:lr-tb;direction:ltr;text-orientation:mixed;dominant-baseline:auto;baseline-shift:baseline;text-anchor:start;white-space:normal;shape-padding:0;clip-rule:nonzero;display:inline;overflow:visible;visibility:visible;opacity:1;isolation:auto;mix-blend-mode:normal;color-interpolation:sRGB;color-interpolation-filters:linearRGB;solid-color:#000000;solid-opacity:1;vector-effect:none;fill:#f8a364;fill-opacity:1;fill-rule:nonzero;stroke:none;stroke-width:0.42959616;stroke-linecap:round;stroke-linejoin:round;stroke-miterlimit:4;stroke-dasharray:none;stroke-dashoffset:0;stroke-opacity:1;paint-order:markers fill stroke;color-rendering:auto;image-rendering:auto;shape-rendering:auto;text-rendering:auto;enable-background:accumulate"
           d="m 34.445368,271.58036 -0.658358,-4.2323 -0.0021,-0.004 c -0.05871,-0.45015 -0.245769,-1.0862 -0.636654,-1.65623 -0.391845,-0.57143 -1.00802,-1.07691 -1.871205,-1.16789 -0.180969,-0.0185 -0.363077,-0.029 -0.543636,-0.03 v 0 c -0.0973,-5e-4 -0.193808,0.002 -0.289904,0.007 0.101528,0.005 0.203051,0.0124 0.304374,0.0227 0.863184,0.091 1.479359,0.59646 1.871204,1.16789 0.390885,0.57003 0.577943,1.20608 0.636654,1.65623 l 0.0021,0.004 0.700994,4.5768 0.303392,-0.0503 c 0.15187,-0.0587 0.190131,-0.16655 0.183139,-0.29391 z"
           id="path1717"
           inkscape:connector-curvature="0"
           sodipodi:nodetypes="cccscccccsccccc"
           inkscape:export-xdpi="700.72992"
           inkscape:export-ydpi="700.72992" />
        <path
           style="color:#000000;font-style:normal;font-variant:normal;font-weight:normal;font-stretch:normal;font-size:medium;line-height:normal;font-family:sans-serif;font-variant-ligatures:normal;font-variant-position:normal;font-variant-caps:normal;font-variant-numeric:normal;font-variant-alternates:normal;font-feature-settings:normal;text-indent:0;text-align:start;text-decoration:none;text-decoration-line:none;text-decoration-style:solid;text-decoration-color:#000000;letter-spacing:normal;word-spacing:normal;text-transform:none;writing-mode:lr-tb;direction:ltr;text-orientation:mixed;dominant-baseline:auto;baseline-shift:baseline;text-anchor:start;white-space:normal;shape-padding:0;clip-rule:nonzero;display:inline;overflow:visible;visibility:visible;opacity:1;isolation:auto;mix-blend-mode:normal;color-interpolation:sRGB;color-interpolation-filters:linearRGB;solid-color:#000000;solid-opacity:1;vector-effect:none;fill:#c31a55;fill-opacity:1;fill-rule:nonzero;stroke:none;stroke-width:0.42959616;stroke-linecap:round;stroke-linejoin:round;stroke-miterlimit:4;stroke-dasharray:none;stroke-dashoffset:0;stroke-opacity:1;paint-order:markers fill stroke;color-rendering:auto;image-rendering:auto;shape-rendering:auto;text-rendering:auto;enable-background:accumulate"
           d="m 28.804812,267.0349 c -0.0913,-0.008 -0.181817,0.0274 -0.27182,0.0718 0.102264,0.0465 0.194429,0.11067 0.269751,0.19017 0.134313,0.14176 0.224446,0.32961 0.232545,0.53899 0.008,0.20856 -0.07711,0.43285 -0.252183,0.60565 l -0.0016,0.002 -0.682646,0.68213 0.077,0.0775 c 0.103386,0.10363 0.271269,0.10363 0.374655,0 l 0.760161,-0.75964 0.0016,-0.002 c 0.175077,-0.1728 0.26021,-0.39709 0.252182,-0.60565 -0.0081,-0.20938 -0.09823,-0.39723 -0.232545,-0.53899 -0.134315,-0.14177 -0.318463,-0.24267 -0.527097,-0.262 z"
           id="path1755"
           inkscape:connector-curvature="0"
           sodipodi:nodetypes="cccccccccccccc"
           inkscape:export-xdpi="700.72992"
           inkscape:export-ydpi="700.72992" />
        <path
           style="color:#000000;font-style:normal;font-variant:normal;font-weight:normal;font-stretch:normal;font-size:medium;line-height:normal;font-family:sans-serif;font-variant-ligatures:normal;font-variant-position:normal;font-variant-caps:normal;font-variant-numeric:normal;font-variant-alternates:normal;font-feature-settings:normal;text-indent:0;text-align:start;text-decoration:none;text-decoration-line:none;text-decoration-style:solid;text-decoration-color:#000000;letter-spacing:normal;word-spacing:normal;text-transform:none;writing-mode:lr-tb;direction:ltr;text-orientation:mixed;dominant-baseline:auto;baseline-shift:baseline;text-anchor:start;white-space:normal;shape-padding:0;clip-rule:nonzero;display:inline;overflow:visible;visibility:visible;opacity:1;isolation:auto;mix-blend-mode:normal;color-interpolation:sRGB;color-interpolation-filters:linearRGB;solid-color:#000000;solid-opacity:1;vector-effect:none;fill:#9c9c9c;fill-opacity:1;fill-rule:nonzero;stroke:none;stroke-width:1.62366915;stroke-linecap:round;stroke-linejoin:round;stroke-miterlimit:4;stroke-dasharray:none;stroke-dashoffset:0;stroke-opacity:1;paint-order:markers fill stroke;color-rendering:auto;image-rendering:auto;shape-rendering:auto;text-rendering:auto;enable-background:accumulate"
           d="m 115.56445,-52.681641 c -1.45852,0 -2.63552,0.725633 -3.51172,1.81836 1.34519,1.321867 2.06909,3.386129 2.94532,6.65625 h 1.19922 c 0.63998,-8.32e-4 1.11453,-0.594259 0.97461,-1.21875 L 116.1875,-49.875 Z"
           transform="matrix(0.26458333,0,0,0.26458333,0,284.3)"
           id="path1766"
           inkscape:connector-curvature="0"
           inkscape:export-xdpi="700.72992"
           inkscape:export-ydpi="700.72992" />
      </g>
      <path
         sodipodi:nodetypes="cccccccccccccccccccccccccccccccccccccccsccccccscccccsccccccccccccccccsccccccccsscccccccccscccccccccccccccccccccccccccccccccccccccccccccccccccccccccccccccccccccccccccccccccccccccccccccccccccccccc"
         inkscape:connector-curvature="0"
         id="rect910-5"
         d="m 3.7191263,283.85759 v 5.3e-4 c -0.03935,0.0203 -0.07444,0.0495 -0.09973,0.0873 -0.200152,0.29636 -0.3139691,0.58463 -0.3100591,0.88108 0.0023,0.17939 0.05065,0.35139 0.1266071,0.52193 -0.6564561,0.18124 -1.1445121,0.61063 -1.4727781,1.08934 -0.390083,0.56886 -0.577535,1.20212 -0.6366541,1.6521 v 0.004 c -1.44e-4,0.001 -0.0019,0.003 -0.0021,0.004 l -0.65784019,4.2323 c -0.0207,0.1311 0.06114,0.25016 0.18396801,0.28887 l -0.11575501,0.75551 c -0.02164,0.14389 0.07691,0.27874 0.220659,0.30127 L 2.17449,293.86496 c 0.135045,0.0208 0.263431,-0.0648 0.296622,-0.19741 l 0.187586,-0.75757 0.03876,0.006 c 0.1223,0.0192 0.241782,-0.0492 0.287321,-0.16433 l 0.185518,-0.46922 -0.125057,1.31103 c -0.04406,0.46261 0.3572721,0.81803 0.7932329,0.81803 v 0.79324 c -5.556e-4,0.14617 0.1173811,0.26509 0.2635502,0.26561 h 5.556767 c 0.1469311,5.6e-4 0.2661791,-0.11868 0.265615,-0.26561 v -0.8413 c 0.3180869,-0.10962 0.5618689,-0.40487 0.5270999,-0.76997 l -0.125574,-1.31672 0.188103,0.47491 c 0.04537,0.11431 0.163625,0.18255 0.285256,0.16433 l 0.03876,-0.006 0.187584,0.75757 c 0.03319,0.13254 0.162093,0.21816 0.297139,0.19741 l 1.218531,-0.18914 c 0.143753,-0.0225 0.242304,-0.15738 0.220657,-0.30127 l -0.115235,-0.755 c 0.122924,-0.0386 0.204675,-0.15822 0.183967,-0.28938 l -0.658358,-4.2323 -0.0021,-0.004 c -0.05872,-0.45015 -0.245778,-1.0862 -0.636664,-1.65623 -0.32825,-0.47869 -0.816374,-0.90757 -1.472779,-1.08882 0.0761,-0.17072 0.124756,-0.34288 0.127124,-0.52245 0.0039,-0.29645 -0.110424,-0.58472 -0.3105759,-0.88108 -0.02717,-0.0405 -0.06467,-0.0714 -0.107487,-0.0915 -0.02133,-0.0105 -1.1372369,-0.555 -3.030595,-0.55501 -1.8933562,-1e-5 -3.0201502,0.55862 -3.0201502,0.55862 z m 3.029272,-0.0295 c 0.919515,0 1.6247672,0.13086 2.0980641,0.2589 -1.1444441,0.45021 -1.7614021,1.08252 -2.0665411,1.65571 -0.0118,0.0222 -0.019579,0.0431 -0.03049,0.0651 -0.01154,-0.0233 -0.0195,-0.0458 -0.03204,-0.0693 -0.3051839,-0.57142 -0.9221661,-1.20241 -2.0660231,-1.6521 0.4732952,-0.12797 1.1779891,-0.25838 2.0970291,-0.25838 z m -2.7672731,0.61547 c 0.9407702,0.29152 1.537784,0.67994 1.908928,1.06505 -0.5588159,-0.23802 -1.236984,-0.3028 -1.9104779,-0.25063 -0.09607,-0.17153 -0.1393849,-0.31145 -0.1410769,-0.43977 -0.0014,-0.10398 0.08102,-0.24381 0.1426268,-0.37465 z m 5.5371302,0 c 0.06137,0.13054 0.1419281,0.27085 0.1405599,0.37465 -0.00159,0.12837 -0.04543,0.26814 -0.1415939,0.43977 -0.6718091,-0.052 -1.3483299,0.012 -1.9063441,0.24856 0.3717182,-0.38509 0.968756,-0.77232 1.9073781,-1.06298 z m -5.137671,1.32756 c 0.486751,-10e-4 0.9507329,0.0722 1.3094809,0.22686 0.4729109,0.20335 0.7551661,0.50305 0.792716,1.00511 0,0.32429 0.5312381,0.33346 0.5312381,0.004 0.03625,-0.50467 0.3189679,-0.80531 0.793234,-1.00924 0.4783299,-0.20568 1.1439311,-0.26833 1.800923,-0.20102 0.6895836,0.0727 1.1589496,0.45902 1.4898316,0.94155 0.330884,0.48253 0.501709,1.0614 0.548804,1.42575 5.3e-4,0.003 0.0013,0.005 0.0021,0.008 l 0.619085,3.97857 -1.339453,0.20877 -0.782899,-1.97817 -0.2232433,-2.34404 c -0.023551,-0.3636 -0.573219,-0.31079 -0.5271,0.0506 l 0.5291669,5.5547 c 0.011541,0.12103 -0.115266,0.24029 -0.2656149,0.24029 H 3.8384984 c -0.1503492,0 -0.2771442,-0.11926 -0.2656171,-0.24029 l 0.529167,-5.5547 c 0.018251,-0.15975 -0.1090171,-0.29872 -0.269751,-0.29456 -0.135627,0.003 -0.2467771,0.10866 -0.2573491,0.24392 l -0.2237589,2.34507 -0.782381,1.97714 -1.3399691,-0.20877 0.6190831,-3.97857 c 7.143e-4,-0.003 0.0015,-0.005 0.0021,-0.008 0.0471,-0.36435 0.219988,-0.94322 0.550871,-1.42575 0.330883,-0.48253 0.7987,-0.86887 1.488281,-0.94155 0.164248,-0.0168 0.3291919,-0.0254 0.4914429,-0.0258 z m 3.614251,0.55759 c -0.0092,5e-5 -0.01828,5.6e-4 -0.02739,0.002 -0.224065,0.0223 -0.3197151,0.29639 -0.1581311,0.45321 0.1913281,0.19133 0.3105761,0.45437 0.3105761,0.74982 -0.0345,0.38436 0.5616041,0.38436 0.5271,0 0,-0.43745 -0.1761151,-0.83604 -0.4630211,-1.12293 -0.04943,-0.0516 -0.1176499,-0.0811 -0.189135,-0.0817 z m -2.5001062,0.002 c -0.06874,0.002 -0.13398,0.0308 -0.1819018,0.0801 -0.286906,0.28689 -0.4625041,0.68548 -0.4625041,1.12293 0.0077,0.34504 0.521507,0.34504 0.5291661,0 0,-0.29545 0.1171819,-0.55849 0.30851,-0.74982 0.1715979,-0.16868 0.04724,-0.46028 -0.1932702,-0.45321 z m 1.6949862,1.4547 c -0.1454991,-0.0135 -0.288708,0.0776 -0.4314981,0.15451 -0.12183,-0.0692 -0.240765,-0.15006 -0.382923,-0.15038 -5.292e-4,0 -0.00111,0 -0.00159,0 -0.3557461,1.5e-4 -0.642896,0.22592 -0.7580929,0.51005 -0.1151991,0.28413 -0.06761,0.64667 0.1875848,0.89452 l 0.7575762,0.75964 c 0.1034439,0.10397 0.2717268,0.10397 0.375171,0 l 0.7596449,-0.75964 0.00209,-0.002 c 0.1750751,-0.1728 0.2602071,-0.39709 0.25218,-0.60565 -0.0081,-0.20938 -0.09823,-0.39722 -0.2325421,-0.53898 -0.134316,-0.14177 -0.3189819,-0.24267 -0.5276159,-0.262 z m -0.04858,0.52555 c 0.06528,0.006 0.1372901,0.0428 0.191204,0.0997 0.05391,0.0569 0.08533,0.12983 0.08785,0.19534 0.00241,0.0655 -0.013041,0.12779 -0.0956,0.20877 -7.937e-4,6.9e-4 -0.0013,10e-4 -0.00209,0.002 l -0.5741241,0.57413 -0.5720588,-0.57413 c -0.0013,-6.9e-4 -0.0027,-0.001 -0.0041,-0.002 -0.1013799,-0.0985 -0.1085818,-0.21158 -0.06615,-0.31626 0.04244,-0.10468 0.1263568,-0.17977 0.267684,-0.17983 0.07261,1.6e-4 0.1420238,0.0272 0.1953368,0.0765 0.1010891,0.0924 0.2559953,0.0924 0.3570841,0 0.08531,-0.0781 0.149696,-0.0902 0.214974,-0.0842 z m -2.5140529,2.38898 -0.5172811,2.33216 c -0.03702,0.16523 0.08853,0.32224 0.2578651,0.32246 h 4.7614671 c 0.1693299,-2.2e-4 0.2948858,-0.15723 0.257865,-0.32246 l -0.5271,-2.38075 c -0.02703,-0.12167 -0.1352971,-0.20798 -0.2599322,-0.20722 H 4.9376572 c -0.1980319,0 -0.2687968,0.0999 -0.3105748,0.2558 z m 0.4805878,0.27339 h 3.2814523 l 0.05839,0.26355 c -0.554836,0.33096 -0.9053219,0.93174 -0.905886,1.58801 H 5.9556744 c -5.292e-4,-0.65642 -0.35134,-1.2571 -0.906404,-1.58801 z m -0.2242769,1.01544 c 0.2836021,0.16374 0.5428091,0.47418 0.5431181,0.83612 h -0.728636 z m 3.7305221,0 0.1855179,0.83612 H 8.0707975 c 2.638e-4,-0.36194 0.2595158,-0.67238 0.543118,-0.83612 z m -7.2419352,0.72088 0.7622271,0.11938 -0.117822,0.478 -0.718819,-0.11317 z m 10.7533477,0 0.07441,0.48421 -0.718816,0.11317 -0.117824,-0.47852 z m -7.7576655,1.70274 h 0.5291669 v 0.52969 H 4.3676632 Z m 1.058849,0 h 0.6170189 v 0.52969 H 5.4265122 Z m 1.1461859,0 h 0.617016 v 0.52969 h -0.617016 z m 1.1466991,0 h 0.617016 v 0.52969 h -0.617016 z m 1.146183,0 h 0.5296821 v 0.52969 H 8.8655794 Z"
         style="color:#000000;font-style:normal;font-variant:normal;font-weight:normal;font-stretch:normal;font-size:medium;line-height:normal;font-family:sans-serif;font-variant-ligatures:normal;font-variant-position:normal;font-variant-caps:normal;font-variant-numeric:normal;font-variant-alternates:normal;font-feature-settings:normal;text-indent:0;text-align:start;text-decoration:none;text-decoration-line:none;text-decoration-style:solid;text-decoration-color:#000000;letter-spacing:normal;word-spacing:normal;text-transform:none;writing-mode:lr-tb;direction:ltr;text-orientation:mixed;dominant-baseline:auto;baseline-shift:baseline;text-anchor:start;white-space:normal;shape-padding:0;clip-rule:nonzero;display:inline;overflow:visible;visibility:visible;opacity:1;isolation:auto;mix-blend-mode:normal;color-interpolation:sRGB;color-interpolation-filters:linearRGB;solid-color:#000000;solid-opacity:1;vector-effect:none;fill:#1a1a1a;fill-opacity:1;fill-rule:nonzero;stroke:none;stroke-width:0.42959616;stroke-linecap:round;stroke-linejoin:round;stroke-miterlimit:4;stroke-dasharray:none;stroke-dashoffset:0;stroke-opacity:1;paint-order:markers fill stroke;color-rendering:auto;image-rendering:auto;shape-rendering:auto;text-rendering:auto;enable-background:accumulate" />
    </g>
  </g>
</svg>
